<svg width="189" height="197" viewBox="0 0 189 197" fill="none" xmlns="http://www.w3.org/2000/svg">
<path d="M46.6199 71.522C45.593 71.5315 44.5912 71.192 43.7659 70.555C42.9407 69.918 42.3371 69.0181 42.0463 67.9915C41.7556 66.9649 41.7937 65.8676 42.1547 64.8655C42.5158 63.8635 43.1802 63.0114 44.0474 62.4381L90.9299 31.0823C91.4539 30.723 92.0406 30.4747 92.6566 30.3518C93.2726 30.2288 93.9058 30.2335 94.5201 30.3657C95.1344 30.4978 95.7176 30.7547 96.2366 31.1218C96.7556 31.4889 97.2002 31.9589 97.5449 32.505C97.8896 33.0512 98.1278 33.6628 98.2457 34.3049C98.3637 34.9469 98.3592 35.607 98.2324 36.2472C98.1057 36.8875 97.8592 37.4954 97.507 38.0364C97.1548 38.5774 96.7039 39.0407 96.1799 39.4L49.1924 70.7012C48.4293 71.2288 47.5356 71.514 46.6199 71.522Z" fill="#b9fa3d"/>
<path d="M69.5623 82.6853C68.5354 82.6948 67.5336 82.3553 66.7083 81.7183C65.8831 81.0813 65.2794 80.1814 64.9887 79.1548C64.698 78.1282 64.736 77.0309 65.0971 76.0288C65.4582 75.0268 66.1226 74.1747 66.9898 73.6014L94.4998 55.16C95.0238 54.8007 95.6105 54.5525 96.2265 54.4295C96.8425 54.3066 97.4757 54.3113 98.09 54.4434C98.7043 54.5755 99.2875 54.8325 99.8065 55.1995C100.326 55.5666 100.77 56.0367 101.115 56.5828C101.46 57.129 101.698 57.7405 101.816 58.3826C101.934 59.0247 101.929 59.6847 101.802 60.325C101.676 60.9652 101.429 61.5732 101.077 62.1142C100.725 62.6551 100.274 63.1185 99.7498 63.4778L72.1348 82.0834C71.3495 82.5344 70.4572 82.7431 69.5623 82.6853Z" fill="#b9fa3d"/>
<path d="M103.53 165.425C102.503 165.435 101.501 165.095 100.676 164.458C99.8509 163.821 99.2472 162.921 98.9565 161.895C98.6658 160.868 98.7038 159.771 99.0649 158.769C99.4259 157.767 100.09 156.915 100.958 156.341L147.84 124.986C148.898 124.26 150.19 124.002 151.43 124.269C152.671 124.536 153.759 125.305 154.455 126.408C155.151 127.511 155.399 128.857 155.143 130.151C154.887 131.444 154.148 132.578 153.09 133.303L106.05 164.659C105.296 165.158 104.423 165.423 103.53 165.425Z" fill="#b9fa3d"/>
<path d="M99.3299 141.949C98.303 141.959 97.3011 141.62 96.4759 140.982C95.6507 140.345 95.047 139.446 94.7563 138.419C94.4656 137.392 94.5036 136.295 94.8647 135.293C95.2258 134.291 95.8902 133.439 96.7574 132.866L124.32 114.424C125.371 113.699 126.656 113.438 127.891 113.7C129.127 113.961 130.212 114.724 130.909 115.82C131.605 116.915 131.855 118.255 131.604 119.542C131.353 120.83 130.621 121.962 129.57 122.687L101.85 141.183C101.097 141.684 100.223 141.95 99.3299 141.949Z" fill="#b9fa3d"/>
<path d="M113.19 31.137C114.908 34.0128 115.884 37.3028 116.022 40.6875C116.16 44.0722 115.456 47.4366 113.978 50.4539L98.8577 82.0834H110.67L123.428 55.4337C125.695 50.7563 126.776 45.5518 126.568 40.3158C126.359 35.0797 124.868 29.9865 122.237 25.5211C119.605 21.0557 115.921 17.3668 111.534 14.8056C107.148 12.2445 102.205 10.8964 97.1777 10.8898H69.6152L64.3652 21.8342H97.0202C100.253 21.8187 103.436 22.6653 106.266 24.2936C109.096 25.9218 111.48 28.2777 113.19 31.137Z" fill="#b9fa3d"/>
<path d="M172.777 113.713C170.848 107.685 167.148 102.444 162.201 98.7311C157.254 95.0184 151.311 93.023 145.215 93.0278H48.8773C46.3693 93.0444 43.8841 92.5316 41.5713 91.5205C39.2585 90.5094 37.166 89.0208 35.4198 87.1444C33.6735 85.268 32.3097 83.0427 31.4105 80.6023C30.5112 78.162 30.0951 75.5572 30.1873 72.9448C30.3098 69.9994 31.0632 67.1199 32.3923 64.5176L54.7573 18.0584C55.3839 16.7594 55.4897 15.2543 55.0516 13.874C54.6135 12.4937 53.6672 11.3513 52.421 10.6982C51.1748 10.0451 49.7308 9.9348 48.4066 10.3915C47.0823 10.8482 45.9864 11.8344 45.3598 13.1334L23.0998 59.3189C21.2359 62.9669 20.0899 66.9663 19.7293 71.0822C19.3687 75.1982 19.8006 79.3477 20.9998 83.2873C22.9373 89.3415 26.6616 94.6021 31.6403 98.3173C36.6189 102.032 42.5969 104.012 48.7198 103.972H88.6198L70.5598 141.566C67.5261 147.867 66.653 155.06 68.0857 161.949C69.5184 168.838 73.1706 175.009 78.4348 179.434C83.5734 183.802 90.0224 186.146 96.6523 186.056H124.215L129.465 175.111H96.7573C93.5246 175.142 90.339 174.303 87.5083 172.676C84.6775 171.048 82.2974 168.687 80.5978 165.821C78.8982 162.955 77.9366 159.68 77.806 156.313C77.6754 152.946 78.3802 149.601 79.8523 146.601L100.327 103.972H145.162C149.239 103.894 153.22 105.264 156.45 107.858C159.888 110.635 162.292 114.573 163.25 118.996C164.208 123.419 163.66 128.052 161.7 132.1L140.07 177.081C139.443 178.38 139.337 179.885 139.775 181.266C140.214 182.646 141.16 183.788 142.406 184.441C143.652 185.094 145.096 185.205 146.42 184.748C147.745 184.291 148.841 183.305 149.467 182.006L170.782 137.681C172.629 134.026 173.757 130.023 174.099 125.907C174.442 121.791 173.992 117.645 172.777 113.713Z" fill="#b9fa3d"/>
</svg>
