<svg width="216" height="230" viewBox="0 0 216 230" fill="none" xmlns="http://www.w3.org/2000/svg">
<path d="M117 95.8334L170.541 187.028C170.808 187.488 170.956 188.014 170.968 188.554C170.981 189.094 170.858 189.628 170.612 190.1C170.366 190.573 170.007 190.967 169.57 191.243C169.134 191.518 168.636 191.664 168.129 191.667H47.8711C47.3612 191.664 46.8614 191.516 46.4235 191.238C45.9856 190.96 45.6257 190.562 45.3813 190.085C45.1369 189.609 45.0169 189.071 45.0337 188.528C45.0506 187.986 45.2037 187.458 45.4771 187L99.0001 95.8334V28.75H117V95.8334ZM63.0001 9.58337V28.75H81.0001V90.6584L30.2311 176.813C28.2516 180.172 27.1528 184.034 27.0487 187.998C26.9446 191.963 27.8391 195.884 29.6392 199.356C31.4394 202.828 34.0796 205.723 37.2856 207.742C40.4917 209.76 44.1467 210.827 47.8711 210.833H168.129C171.854 210.827 175.509 209.76 178.715 207.742C181.921 205.723 184.561 202.828 186.361 199.356C188.161 195.884 189.056 191.963 188.952 187.998C188.847 184.034 187.749 180.172 185.769 176.813L135.009 90.6584L135 28.75H153V9.58337H63.0001Z" fill="#b9fa3d"/>
</svg>
