<svg width="300" height="300" viewBox="0 0 300 300" fill="none" xmlns="http://www.w3.org/2000/svg">
<rect width="300" height="300" rx="150" fill="black"/>
<path d="M144.448 203.896C137.877 203.896 131.989 202.829 126.784 200.696C121.579 198.563 117.397 195.405 114.24 191.224C111.168 187.043 109.547 182.008 109.376 176.12H132.672C133.013 179.448 134.165 182.008 136.128 183.8C138.091 185.507 140.651 186.36 143.808 186.36C147.051 186.36 149.611 185.635 151.488 184.184C153.365 182.648 154.304 180.557 154.304 177.912C154.304 175.693 153.536 173.859 152 172.408C150.549 170.957 148.715 169.763 146.496 168.824C144.363 167.885 141.291 166.819 137.28 165.624C131.477 163.832 126.741 162.04 123.072 160.248C119.403 158.456 116.245 155.811 113.6 152.312C110.955 148.813 109.632 144.248 109.632 138.616C109.632 130.253 112.661 123.725 118.72 119.032C124.779 114.253 132.672 111.864 142.4 111.864C152.299 111.864 160.277 114.253 166.336 119.032C172.395 123.725 175.637 130.296 176.064 138.744H152.384C152.213 135.843 151.147 133.581 149.184 131.96C147.221 130.253 144.704 129.4 141.632 129.4C138.987 129.4 136.853 130.125 135.232 131.576C133.611 132.941 132.8 134.947 132.8 137.592C132.8 140.493 134.165 142.755 136.896 144.376C139.627 145.997 143.893 147.747 149.696 149.624C155.499 151.587 160.192 153.464 163.776 155.256C167.445 157.048 170.603 159.651 173.248 163.064C175.893 166.477 177.216 170.872 177.216 176.248C177.216 181.368 175.893 186.019 173.248 190.2C170.688 194.381 166.933 197.709 161.984 200.184C157.035 202.659 151.189 203.896 144.448 203.896ZM200.926 204.024C197.086 204.024 193.929 202.915 191.454 200.696C189.065 198.392 187.87 195.576 187.87 192.248C187.87 188.835 189.065 185.976 191.454 183.672C193.929 181.368 197.086 180.216 200.926 180.216C204.681 180.216 207.753 181.368 210.142 183.672C212.617 185.976 213.854 188.835 213.854 192.248C213.854 195.576 212.617 198.392 210.142 200.696C207.753 202.915 204.681 204.024 200.926 204.024Z" fill="#B9FA3D"/>
</svg>
